# xmcd
#
# Track frame offsets:
# 150
# 19347
# 37344
# 51185
# 69466
# 86324
# 103139
# 117358
# 137040
# 156792
# 183209
# 203173
# 211820
#
# Disc length: 3040 seconds
#
# Revision: 1
# Processed by: cddbd v1.5.2PL0 Copyright (c) Steve Scherf et al.
# Submitted via: CedeCatalogueitor 2.6.0.6 http://personales.ya.com/cdcatalogueitor
#
DISCID=b60bde0d
DTITLE=Räulmoya Y El Trío Miniña - La Nueva Era Glaciar
DYEAR=1900
DGENRE=
TTITLE0=Adiós Mi Vida, Adiós
TTITLE1=Hada Garland Y Las Vividas Palabras
TTITLE2=Bon Automne 05
TTITLE3=Nana Folk En Fa Mayor
TTITLE4=Miedo Al Miedo
TTITLE5=La Nueva Era Glaciar
TTITLE6=Extraño De Mi
TTITLE7=Rian Con Sentido
TTITLE8=Té End
TTITLE9=Juan Sin Miedo
TTITLE10=Farges
TTITLE11=La Canción Del Joven Jugador
TTITLE12=
EXTD=
EXTT0=
EXTT1=
EXTT2=
EXTT3=
EXTT4=
EXTT5=
EXTT6=
EXTT7=
EXTT8=
EXTT9=
EXTT10=
EXTT11=
EXTT12=
PLAYORDER=
